<svg fill="none" height="4005" viewBox="0 0 4016 4005" width="4016" xmlns="http://www.w3.org/2000/svg"><g fill="#cb8bb3" opacity=".05"><path d="m2076.4 3935.89c-2.99-41.05 27.78-76.69 68.79-79.74 41.03-2.98 76.67 27.78 79.73 68.83 2.99 41-27.86 76.64-68.88 79.7-1.84.09-3.65.18-5.47.18-38.62-.01-71.27-29.87-74.17-68.97zm-220.4 68.54c-40.95-3.04-71.69-38.78-68.65-79.79 3.07-40.95 38.78-71.71 79.73-68.65 41.01 3.06 71.77 38.79 68.72 79.71-2.9 39.13-35.57 68.9-74.19 68.9-1.8 0-3.71 0-5.61-.17zm508.03-100.15c-9.1-40.1 16.04-79.98 56.08-89.06 40.09-9.01 79.95 16.12 89.04 56.14 9.1 40.12-16.03 79.97-56.14 89.08-5.52 1.23-11.08 1.81-16.54 1.81-34 .01-64.67-23.4-72.44-57.97zm-804.92 55.49c-40.03-9.19-65.18-49.03-55.99-89.14 9.18-40.03 49.03-65.1 89.14-55.99 40.03 9.18 65.18 49.04 55.99 89.14-7.86 34.49-38.55 57.9-72.45 57.9-5.53-.01-11.07-.68-16.69-1.91zm1084.52-129.74c-15.06-38.23 3.8-81.39 42.09-96.44 38.29-14.95 81.47 3.89 96.44 42.18 15.04 38.2-3.82 81.47-42.1 96.43-8.94 3.48-18.12 5.14-27.14 5.14-29.76-.01-57.8-17.95-69.29-47.31zm-1371.66 41c-38.21-15.13-56.97-58.29-41.93-96.51 15.05-38.28 58.3-57.03 96.51-42.01 38.29 15.05 57.05 58.33 42.01 96.52-11.58 29.28-39.62 47.22-69.31 47.22-9.09-.01-18.27-1.74-27.28-5.22zm1636.8-156.21c-20.59-35.64-8.43-81.11 27.2-101.73 35.56-20.59 81.05-8.35 101.63 27.21 20.6 35.56 8.38 81.13-27.19 101.72-11.73 6.69-24.47 9.93-37.14 9.93-25.72 0-50.77-13.32-64.5-37.13zm-1907.24 25.39c-35.559-20.59-47.619-66.15-26.955-101.72 20.596-35.56 66.165-47.73 101.735-27.06 35.56 20.61 47.62 66.17 27.04 101.73-13.9 23.81-38.87 37.14-64.52 37.14-12.64-.01-25.53-3.31-37.3-10.09zm2152.19-179.13c-25.63-32.17-20.34-78.98 11.82-104.62 32.1-25.64 78.9-20.35 104.63 11.84 25.54 32.09 20.34 78.9-11.83 104.53-13.72 11.01-30.11 16.28-46.4 16.28-21.82 0-43.49-9.59-58.22-28.03zm-2399.867 9.42v.09c-32.083-25.72-37.292-72.61-11.658-104.7 25.719-32.09 72.522-37.3 104.622-11.57h.068c32.092 25.73 37.224 72.52 11.581 104.62-14.728 18.34-36.385 27.93-58.23 27.93-16.285 0-32.656-5.36-46.383-16.37zm2619.437-197.91c-30.17-27.94-31.84-75.07-3.89-105.19 27.96-30.1 75.1-31.83 105.21-3.79 30.11 27.95 31.84 75.01 3.8 105.11-14.64 15.79-34.57 23.82-54.51 23.82-18.11 0-36.3-6.62-50.61-19.95zm-2839.253-6.6c-27.883-30.12-26.053-77.23 4.054-105.1 30.193-27.95 77.329-26.13 105.204 4.05 27.951 30.1 26.13 77.23-4.054 105.11-14.31 13.32-32.425 19.83-50.541 19.83-20.014 0-39.943-8-54.663-23.89zm3028.393-212.37c-33.9-23.15-42.58-69.48-19.43-103.38 23.14-34 69.55-42.67 103.46-19.43 33.89 23.14 42.58 69.46 19.43 103.38-14.48 21.07-37.79 32.49-61.52 32.49-14.49 0-29.13-4.22-41.94-13.06zm-3215.296-22.43c-23.154-33.96-14.387-80.29 19.603-103.37 33.991-23.15 80.297-14.39 103.459 19.62 23.068 33.98 14.31 80.29-19.689 103.38-12.821 8.75-27.37 12.98-41.851 12.98-23.726-.01-47.127-11.43-61.522-32.61zm3369.856-222.21c-37.06-17.93-52.51-62.43-34.65-99.4 17.86-37.04 62.36-52.52 99.4-34.65 36.97 17.87 52.52 62.35 34.66 99.32v.08c-12.91 26.55-39.44 42.02-67.07 42.02-10.92 0-21.93-2.32-32.34-7.37zm-3519.793-37.79c-17.773-37.04-2.232-81.45 34.828-99.31 37.044-17.79 81.546-2.16 99.32 34.89 17.858 37.05 2.232 81.46-34.82 99.33-10.333 4.94-21.332 7.33-32.16 7.33-27.721.01-54.338-15.53-67.168-42.24zm3635.993-227.34c-39.21-12.16-61.28-53.75-49.21-93.05 12.15-39.27 53.83-61.35 93.12-49.19 39.28 12.07 61.27 53.75 49.2 93.05-9.92 32-39.36 52.49-71.1 52.49-7.28 0-14.65-1.07-22.01-3.3zm-3745.3193-52.27c-12.077-39.36 10.0072-80.96 49.2913-93.03 39.362-11.98 80.965 10.1 93.042 49.38 11.983 39.27-10.102 80.87-49.378 92.94-7.278 2.24-14.634 3.33-21.836 3.33-31.835 0-61.3602-20.61-71.1193-52.62zm3820.4193-227.17c-40.69-6.03-68.73-43.92-62.61-84.6 6.04-40.7 43.92-68.67 84.61-62.6 40.6 6.03 68.63 44 62.6 84.59-5.55 36.98-37.3 63.44-73.54 63.44-3.63 0-7.35-.25-11.06-.83zm-3886.5779-65.74c-6.0385-40.69 22.0842-78.49 62.763-84.53 40.6099-6.05 78.4839 22.1 84.5219 62.7 5.953 40.69-22.093 78.56-62.771 84.59-3.721.51-7.3645.75-10.9996.75-36.214-.01-68.0488-26.54-73.5143-63.51zm3844.4879-296.15c0-41.1 33.31-74.45 74.41-74.45 41.11 0 74.44 33.35 74.44 74.45s-33.33 74.44-74.44 74.44-74.41-33.35-74.41-74.44zm-3791.886 71.37c-41.1065-.09-74.3439699-33.5-74.2669916-74.61.0769786-41.1 33.4170916-74.34 74.5064916-74.27 41.1145 0 74.3525 33.42 74.3525 74.51-.086 41.11-33.417 74.36-74.4295 74.36-.0856.01-.0856.01-.1625.01zm3772.196-342.7c-5.96-40.7 22.24-78.49 62.92-84.46 40.6-5.96 78.42 22.25 84.35 62.94 5.95 40.6-22.17 78.41-62.85 84.34-3.65.58-7.29.84-10.84.84-36.38 0-68.13-26.62-73.58-63.66zm-3761.3678 53.59c-40.6873-6.12-68.6475-44.08-62.4379-84.78 6.1155-40.6 43.9974-68.57 84.6847-62.44 40.679 6.11 68.63 44.09 62.429 84.78-5.534 36.88-37.291 63.24-73.5139 63.24-3.6351 0-7.4412-.23-11.1619-.8zm3700.6478-324.79c-11.98-39.28 10.18-80.87 49.46-92.86 39.36-11.98 80.97 10.17 92.85 49.54 12.01 39.29-10.16 80.87-49.42 92.87-7.29 2.24-14.56 3.24-21.77 3.24-31.84 0-61.35-20.68-71.12-52.79zm-3646.985 40.54c-39.2678-12.27-61.2751-53.93-49.027-93.2 12.154-39.2 53.842-61.2 93.11-49.05 39.207 12.16 61.206 53.94 49.052 93.12-9.93 32.02-39.285 52.44-71.043 52.44-7.364 0-14.797-1.08-22.092-3.31zm3546.185-299.46c-17.78-37.06-2.08-81.56 34.98-99.24 37.05-17.79 81.54-2.14 99.33 34.97 17.69 37.04 2.06 81.55-35.08 99.25-10.34 4.96-21.24 7.36-32.08 7.36-27.7.01-54.41-15.63-67.15-42.34zm-3450.407 26.2c-36.967-17.85-52.422-62.43-34.486-99.4 17.944-36.97 62.437-52.42 99.396-34.49 37.06 17.88 52.439 62.44 34.571 99.42-12.898 26.55-39.447 42.01-67.065 42.01-10.828 0-21.921-2.39-32.416-7.54zm3312.047-267.12c-23.17-33.973-14.31-80.297 19.76-103.356 34-23.077 80.32-14.224 103.38 19.757 23.08 33.991 14.23 80.306-19.76 103.365-12.82 8.699-27.37 12.915-41.78 12.915-23.81.009-47.21-11.487-61.6-32.681zm-3176.334 11.512c-33.905-23.239-42.51-69.554-19.271-103.45 23.248-33.905 69.554-42.586 103.459-19.279 33.905 23.231 42.518 69.546 19.27 103.459-14.386 21.015-37.719 32.348-61.445 32.348-14.481-.008-29.201-4.234-42.013-13.078zm3003.484-229.25c-27.87-30.184-25.97-77.329 4.22-105.195 30.18-27.866 77.32-25.967 105.2 4.208 27.86 30.287 25.97 77.338-4.21 105.196-14.32 13.231-32.43 19.766-50.45 19.766-20.11.008-40.12-8.091-54.76-23.975zm-2831.224-3.301c-30.107-27.96-31.758-75.097-3.712-105.127 28.037-30.081 75.088-31.749 105.186-3.72 30.022 28.045 31.767 75.105 3.721 105.203-14.72 15.704-34.563 23.65-54.501 23.65-18.192.008-36.385-6.603-50.694-20.006zm2627.954-186.493c-32-25.719-37.13-72.53-11.41-104.605 25.71-31.997 72.6-37.146 104.7-11.427 32 25.728 37.13 72.608 11.42 104.631-14.73 18.346-36.32 27.857-58.16 27.857-16.27 0-32.73-5.388-46.55-16.456zm-2423.183-17.859c-25.557-32.16-20.263-78.98 11.906-104.528 32.168-25.548 79.056-20.271 104.613 11.906 25.557 32.254 20.263 79.065-11.914 104.605-13.728 10.923-30.107 16.217-46.307 16.131-21.913 0-43.587-9.588-58.298-28.114zm2194.023-139.604c-35.47-20.673-47.56-66.219-26.88-101.791 20.78-35.479 66.25-47.556 101.81-26.814 35.47 20.698 47.55 66.252 26.87 101.731-13.81 23.726-38.77 36.958-64.43 36.958-12.72 0-25.55-3.207-37.37-10.084zm-1961.232-31.998c-20.511-35.632-8.271-81.135 27.382-101.628 35.55-20.51 81.11-8.279 101.62 27.379 20.51 35.632 8.2 81.118-27.37 101.637-11.73 6.688-24.47 9.904-37.06 9.904-25.78 0-50.836-13.394-64.572-37.292zm1711.152-89.483c-38.23-15.139-56.9-58.383-41.78-96.607 15.06-38.199 58.31-56.981 96.52-41.825 38.29 15.122 56.97 58.366 41.83 96.667-11.56 29.184-39.61 46.966-69.21 46.966-9.09.008-18.35-1.66-27.36-5.201zm-1455.52-45.571c-14.96-38.284 3.96-81.443 42.25-96.334 0 0 0 0 0-.094 38.3-14.891 81.46 4.054 96.43 42.355 14.89 38.284-4.06 81.452-42.26 96.437h-.08c-8.85 3.37-18.02 5.038-26.96 5.038-29.77-.009-57.89-17.953-69.38-47.402zm1189.96-36.958c-40.03-9.271-65.07-49.206-55.81-89.243 9.18-40.0205 49.12-65.0812 89.24-55.8182 40.02 9.169 65 49.1207 55.82 89.1582-7.95 34.46-38.55 57.793-72.45 57.793-5.54.009-11.16-.667-16.8-1.89zm-916.8-58.23c-9.02-40.1139 16.21-79.9715 56.3-88.9866 40.13-8.9979 79.91 16.2168 88.92 56.3226 9.01 40.106-16.14 79.886-56.23 88.901-5.55 1.241-11.01 1.822-16.45 1.822-34 0-64.77-23.495-72.54-58.059zm642.08 16.457c-41.02-3.148-71.69-38.934-68.57-79.8867 3.15-41.0209 38.88-71.70107 79.9-68.553511 40.94 3.130451 71.63 38.865511 68.47 79.894911-2.97 39.0113-35.55 68.7073-74.08 68.7073-1.92 0-3.81-.077-5.72-.162zm-357.68-69.6315c-2.99-41.0295 27.87-76.57634 68.88-79.552833 41.02-2.890967 76.66 27.960233 79.56 68.964033 2.89 41.0293-27.95 76.5853-68.89 79.5613-1.81.068-3.63.171-5.37.171-38.7 0-71.36-29.936-74.18-69.1435z"/><path d="m2001.03 3586.09c-2.01-43.89 32.01-81.11 75.91-83.11 43.91-1.93 81.09 31.98 83.1 75.9 1.95 43.92-31.99 81.18-75.98 83.11h.07c-1.24.08-2.5.08-3.67.08-42.32 0-77.51-33.36-79.43-75.98zm-232.64 60.48c-43.48-6.28-73.65-46.65-67.36-90.13 6.27-43.57 46.67-73.73 90.14-67.44 43.57 6.27 73.72 46.66 67.45 90.12-5.79 39.71-39.8 68.29-78.75 68.29-3.78.01-7.62-.25-11.48-.84zm532.81-87.54c-10.3-42.74 16.09-85.71 58.81-95.93 42.73-10.3 85.71 16.1 95.93 58.8 10.31 42.74-16 85.72-58.83 95.93-6.18 1.52-12.45 2.27-18.58 2.27-35.94 0-68.61-24.54-77.33-61.07zm-840.01 12.57c-41.56-14.49-63.41-59.82-49.01-101.37 14.49-41.46 59.91-63.43 101.37-48.94 41.47 14.4 63.43 59.81 49.01 101.3-11.47 32.83-42.32 53.45-75.23 53.45-8.65 0-17.51-1.43-26.14-4.44zm1129.62-96.17c-18.27-39.95-.59-87.21 39.37-105.39 39.97-18.27 87.21-.58 105.48 39.46 18.18 39.97.5 87.11-39.46 105.37-10.71 4.87-21.94 7.21-32.91 7.21-30.26 0-59.15-17.34-72.48-46.65zm-1416.98-36.02c-37.94-22.11-50.84-70.87-28.74-108.84 22.04-38.03 70.8-50.84 108.75-28.81 38.03 22.11 50.93 70.86 28.82 108.82-14.84 25.4-41.48 39.62-68.86 39.62-13.57-.01-27.4-3.51-39.97-10.79zm1685.31-101.2c-25.46-35.88-17.09-85.55 18.7-111.02 35.83-25.47 85.52-17.08 110.99 18.69 25.48 35.86 17.1 85.54-18.68 111.01-14 9.98-30.16 14.76-46.08 14.76-24.89-.02-49.43-11.68-64.93-33.44zm-1942.236-83.11c-33.177-28.82-36.607-79.18-7.706-112.26 28.901-33.2 79.168-36.62 112.262-7.72 33.17 28.93 36.61 79.19 7.71 112.35-15.74 18.02-37.785 27.24-59.98 27.24-18.603-.01-37.215-6.46-52.286-19.61zm2179.736-102.55c-31.74-30.4-32.93-80.75-2.52-112.5 30.33-31.84 80.75-33.01 112.53-2.6 31.75 30.32 32.92 80.75 2.58 112.51-15.66 16.35-36.6 24.62-57.62 24.62-19.69 0-39.55-7.38-54.97-22.03zm-2397.302-126.84c-27.139-34.6-21.024-84.61 13.574-111.74 34.597-27.08 84.608-20.95 111.755 13.66 27.062 34.58 20.93 84.62-13.659 111.75-14.575 11.38-31.835 16.92-49.001 16.92-23.632 0-47.008-10.58-62.669-30.59zm2595.622-100.27c-36.96-23.79-47.61-73.05-23.72-109.98 23.79-36.96 73.05-47.6 109.99-23.82 36.95 23.88 47.59 73.15 23.8 110.09-15.26 23.55-40.88 36.45-67.03 36.45-14.74-.01-29.66-4.11-43.04-12.74zm-2766.018-166.04s0 0 0-.09c-20.108-39.11-4.61-87.03 34.521-107.07 39.113-20.1 87.037-4.61 107.059 34.52 20.109 39.11 4.619 87.04-34.529 107.15-11.555 5.94-23.957 8.71-36.179 8.71-28.901 0-56.81-15.75-70.872-43.22zm2917.798-94.42c-40.8-16.32-60.56-62.64-44.23-103.47 16.41-40.79 62.74-60.67 103.54-44.22 40.79 16.34 60.58 62.65 44.23 103.46-12.48 31.09-42.4 50.01-73.9 50.01-9.88-.01-19.92-1.83-29.64-5.78zm-3034.497-199.63c-12.239-42.22 12.06-86.38 54.27-98.6 42.227-12.16 86.378 12.14 98.609 54.38 12.24 42.22-12.06 86.26-54.287 98.57-7.458 2.12-14.822 3.11-22.195 3.11-34.521.01-66.355-22.62-76.397-57.46zm3133.937-84.87c-43.14-8.3-71.45-50.01-63.17-93.24v.09c8.31-43.23 50.02-71.45 93.16-63.15 43.16 8.18 71.46 49.91 63.17 93.05v.08c-7.29 38.04-40.71 64.61-78.06 64.61-4.96-.01-10.06-.53-15.1-1.44zm-3192.415-225.84c-3.934-43.83 28.328-82.53 72.052-86.46 43.818-4.03 82.521 28.23 86.455 72.05 4.02 43.72-28.319 82.43-72.043 86.44-2.429.26-4.858.35-7.296.35-40.713 0-75.404-31.09-79.168-72.38zm3156.135-152.06c0-43.92 35.69-79.59 79.59-79.59 43.98 0 79.59 35.67 79.59 79.59h.09c0 43.97-35.7 79.58-79.67 79.58-43.91 0-79.6-35.61-79.6-79.58zm-3083.587-76.99c-43.732-4.28-75.738-43.25-71.385-86.96 4.277-43.73 43.228-75.73 86.96-71.47 43.741 4.28 75.73 43.22 71.376 86.98-4.028 41.12-38.617 71.87-79.082 71.77-2.592 0-5.2-.09-7.869-.32zm3058.707-196.97c-7.96-43.23 20.6-84.68 63.84-92.63 43.25-7.98 84.79 20.61 92.75 63.83s-20.7 84.69-63.84 92.64c-4.94.95-9.8 1.36-14.58 1.36-37.62-.01-71.05-26.83-78.17-65.2zm-3015.813-101.35c-42.141-12.57-66.099-56.88-53.62-99.03h.077c12.479-42.13 56.81-66.09 98.943-53.52 42.141 12.47 66.107 56.79 53.611 98.94-10.298 34.59-41.961 56.86-76.234 56.86-7.535 0-15.156-.99-22.777-3.25zm2937.323-173.42c-16.01-40.89 4.1-87.13 45.06-103.13 40.89-16.09 87.06 4.02 103.14 45 16.09 40.87-4.11 87.11-44.98 103.12-9.56 3.75-19.37 5.53-29.07 5.53-31.76-.01-61.84-19.19-74.15-50.52zm-2838.312-111.34c-39.028-20.35-54.115-68.44-33.759-107.41 20.365-38.95 68.451-54.03 107.41-33.75 38.96 20.35 54.039 68.44 33.683 107.4h.077c-14.241 27.21-41.962 42.81-70.615 42.81-12.488.01-25.061-2.95-36.796-9.05zm2708.872-143.51c-23.53-37.12-12.57-86.3 24.56-109.84 37.11-23.52 86.29-12.55 109.91 24.56 23.54 37.1 12.48 86.28-24.55 109.82-13.23 8.38-27.98 12.41-42.56 12.41-26.4 0-52.19-13.07-67.36-36.95zm-2557.481-117.19c-34.435-27.4-40.123-77.43-12.821-111.833 27.395-34.452 77.414-40.148 111.841-12.829 34.435 27.387 40.122 77.402 12.821 111.822-15.755 19.78-38.96 30.07-62.412 30.07-17.346 0-34.778-5.59-49.429-17.23zm2382.061-108.668c-30.17-31.997-28.65-82.35 3.34-112.517 32.01-30.072 82.37-28.55 112.54 3.439 30.15 32.014 28.64 82.349-3.37 112.516-15.43 14.412-35.02 21.597-54.55 21.597-21.19 0-42.29-8.365-57.96-25.035zm-2184.099-118.709c-28.653-33.34-24.881-83.598 8.459-112.26 33.341-28.645 83.6-24.881 112.24 8.459 28.59 33.349 24.81 83.624-8.53 112.26-14.99 12.898-33.42 19.27-51.766 19.27-22.461 0-44.742-9.46-60.403-27.729zm1969.129-70.025c-35.6-25.728-43.57-75.49-17.84-111.105 25.74-35.59 75.48-43.63 111.17-17.919 35.59 25.805 43.56 75.49 17.85 111.174-15.58 21.52-39.9 32.938-64.6 32.938-16.17-.008-32.41-4.884-46.58-15.088zm-1731.96-116.032c-21.8-38.121-8.54-86.788 29.57-108.573 38.2-21.879 86.8-8.639 108.65 29.577 21.79 38.112 8.54 86.78-29.57 108.565-12.48 7.124-26.05 10.477-39.46 10.477-27.65-.008-54.45-14.343-69.19-40.046zm1485.42-28.661c-39.88-18.518-57.21-65.842-38.71-105.64 18.53-39.866 65.84-57.212 105.72-38.703 39.88 18.526 57.23 65.876 38.71 105.717-13.49 28.995-42.22 46.093-72.31 46.093-11.22-.009-22.59-2.352-33.41-7.467zm-1217.26-109.07c-14.15-41.568 8.05-86.797 49.68-100.953 41.63-14.155 86.79 8.049 101.03 49.703 14.16 41.628-8.12 86.857-49.75 101.021-8.47 2.848-17.1 4.268-25.66 4.268-33.16-.009-64.07-20.861-75.3-54.039zm947.66 14.061c-42.63-10.631-68.69-53.782-58.15-96.402 10.64-42.655 53.8-68.69 96.44-58.059 42.63 10.555 68.69 53.697 58.13 96.343-9.04 36.257-41.47 60.479-77.24 60.479-6.28 0-12.72-.753-19.18-2.361zm-658.21-98.104c-5.96-43.553 24.46-83.676 68.02-89.629 43.57-6.03 83.68 24.471 89.64 68.049 5.94 43.544-24.47 83.676-68.02 89.629-3.69.504-7.3.735-10.91.735-39.12-.008-73.28-28.892-78.73-68.784zm375.48 56.134c-43.89-2.249-77.67-39.695-75.31-83.59 2.26-43.903 39.69-77.671 83.61-75.396 43.89 2.327 77.56 39.79 75.3 83.667-2.26 42.475-37.35 75.413-79.42 75.413-1.43.009-2.76.009-4.18-.094z"/><path d="m2003.61 3260.51c-3.49-50.51 34.63-94.24 85.15-97.63 50.43-3.49 94.14 34.64 97.63 85.07 3.48 50.51-34.64 94.22-85.15 97.71-2.1.1-4.19.18-6.29.18-47.79 0-88.03-36.99-91.34-85.33zm-237.65 66.65c-49.73-9.07-82.81-56.8-73.73-106.51 8.98-49.82 56.62-82.81 106.44-73.83 49.81 9.08 82.8 56.72 73.81 106.54-8.03 44.24-46.67 75.29-90.13 75.29-5.41-.01-10.9-.53-16.39-1.49zm549.38-104.41c-15.87-48.1 10.11-99.82 58.19-115.79 47.98-15.87 99.8 10.2 115.77 58.28 15.88 47.99-10.2 99.79-58.19 115.69-9.6 3.12-19.3 4.71-28.8 4.71-38.46-.1-74.23-24.43-86.97-62.89zm-870.09 3.22c-45.98-21.2-66.05-75.65-44.94-121.54 21.2-45.98 75.63-66.05 121.53-44.93 45.97 21.21 66.05 75.55 44.93 121.53-15.43 33.57-48.59 53.32-83.23 53.32-12.83 0-25.91-2.72-38.29-8.38zm1162.62-117.43c-27.38-42.59-15.01-99.21 27.56-126.61 42.59-27.3 99.3-14.91 126.62 27.66 27.29 42.56 14.9 99.2-27.6 126.5v.1c-15.35 9.76-32.44 14.48-49.46 14.48-30.09.01-59.67-14.83-77.12-42.13zm-1447.92-60.3c-39.27-31.85-45.28-89.5-13.44-128.86 31.93-39.25 89.6-45.28 128.86-13.36 39.36 31.86 45.28 89.62 13.44 128.88-18.15 22.32-44.58 33.83-71.19 33.83-20.32.01-40.74-6.69-57.67-20.49zm1702.95-122.83c-37-34.55-39.01-92.5-4.46-129.49 34.45-36.98 92.49-38.99 129.48-4.44 36.99 34.45 38.91 92.49 4.45 129.36-18.07 19.39-42.51 29.16-67.01 29.16-22.43.01-44.85-8.12-62.46-24.59zm-1935.461-119.61c-30.269-40.58-21.896-97.98 18.757-128.17 40.568-30.18 97.894-21.81 128.164 18.76 30.18 40.56 21.81 97.96-18.77 128.15-16.4 12.31-35.59 18.14-54.61 18.14-27.995 0-55.562-12.72-73.541-36.88zm2137.511-120.86c-44.33-24.34-60.64-80-36.29-124.32 24.34-44.39 80-60.61 124.32-36.27 44.4 24.23 60.63 79.91 36.38 124.31-16.66 30.36-48.08 47.56-80.45 47.56-14.92-.01-30-3.6-43.96-11.28zm-2303.005-171.51c-19.202-46.83 3.139-100.33 49.89-119.53 46.863-19.19 100.337 3.14 119.624 49.99 19.185 46.79-3.233 100.25-49.993 119.53-11.341 4.62-23.119 6.91-34.743 6.91-36.094-.01-70.212-21.47-84.778-56.9zm2439.275-111.5c-49.02-12.48-78.6-62.3-66.13-111.32 12.49-49.03 62.4-78.71 111.41-66.23 49.03 12.57 78.61 62.39 66.15 111.41-10.57 41.46-47.84 69.02-88.74 69.02-7.42.01-15.1-.87-22.69-2.88zm-2526.877-213.04c-6.894-50.16 28.089-96.41 78.176-103.3 50.164-6.98 96.403 27.99 103.288 78.18 6.979 50.07-28.003 96.32-78.082 103.29-4.276.6-8.544.87-12.735.87-45.016 0-84.283-33.16-90.647-79.04zm2496.687-186.45c0-5.5.54-10.82 1.4-16.16-1.06-5.14-1.65-10.54-1.83-16.05-1.4-50.59 38.46-92.64 89.07-94.02 50.6-1.42 92.65 38.47 94.04 89.07.18 6.37-.26 12.65-1.3 18.68 1.23 5.92 1.83 12.11 1.83 18.48 0 50.61-40.99 91.61-91.6 91.61-50.6-.01-91.61-41.01-91.61-91.61zm-2420.256-48.24c-50.344-5.5-86.558-50.8-81.058-101.12 5.585-50.26 50.857-86.56 101.124-80.96 50.335 5.47 86.541 50.76 81.05 101.1-5.235 46.86-44.845 81.58-90.997 81.58-3.31 0-6.723-.18-10.119-.6zm2375.936-270.9c-13.87-48.68 14.41-99.38 63.08-113.25 48.61-13.79 99.28 14.39 113.16 63.08 13.85 48.68-14.4 99.28-63.07 113.15-8.38 2.36-16.76 3.58-25.13 3.5-39.88 0-76.6-26.27-88.04-66.48zm-2325.164-39.1c-47.282-17.88-71.197-70.76-53.304-118.14h.103c17.868-47.28 70.743-71.19 118.034-53.22 47.375 17.9 71.187 70.76 53.294 118.06-13.865 36.63-48.761 59.23-85.754 59.23-10.734.01-21.725-1.91-32.373-5.93zm2211.314-227.79c-25.56-43.72-10.92-99.81 32.81-125.37 43.7-25.55 99.81-10.82 125.36 32.88 0 0 0 0-.08 0 25.54 43.62 10.81 99.82-32.81 125.29-14.56 8.47-30.46 12.57-46.16 12.57-31.49 0-62.11-16.24-79.12-45.37zm-2084.89-59.66c-41.355-29.16-51.311-86.3-22.256-127.66 29.15-41.44 86.208-51.39 127.636-22.34 41.36 29.15 51.41 86.31 22.25 127.66-17.78 25.38-46.23 38.99-75.02 38.99-18.158-.01-36.565-5.4-52.61-16.65zm1908.21-170.82c-35.49-36.05-35.07-94.07.96-129.57 36.04-35.53 93.96-35.16 129.55.86 35.51 36.05 35.09 94.06-.94 129.56-17.9 17.64-41.1 26.45-64.3 26.45-23.63 0-47.3-9.17-65.27-27.3zm-1714.44-76.44c-32.98-38.4-28.61-96.14 9.85-129.129 38.4-32.998 96.14-28.533 129.12 9.862 33 38.387 28.54 96.227-9.84 129.127v.08c-17.28 14.82-38.48 22.07-59.59 22.07-25.83.01-51.48-10.92-69.54-32.01zm1486.48-103.48c-43.36-26.162-57.22-82.527-31.05-125.806 26.09-43.271 82.44-57.229 125.71-31.057 43.37 26.173 57.22 82.453 31.05 125.8-17.18 28.443-47.45 44.233-78.43 44.233-16.14 0-32.55-4.27-47.28-13.17zm-1238.01-88.284c-22.43-45.374-3.84-100.32 41.53-122.754 45.36-22.427 100.34-3.849 122.76 41.508 22.42 45.383 3.84 100.269-41.54 122.763-13.08 6.466-26.87 9.511-40.55 9.511-33.69 0-66.24-18.748-82.2-51.028zm972.69-29.491c-48.5-14.489-75.99-65.603-61.43-114.039 14.59-48.505 65.63-75.986 114.05-61.429h.08c48.41 14.583 75.9 65.629 61.33 114.133-11.87 39.601-48.33 65.269-87.68 65.269-8.72 0-17.63-1.24-26.35-3.934zm-684.25-94.76c-10.49-49.557 21.29-98.054 70.75-108.523 49.56-10.392 98.07 21.281 108.53 70.744 10.38 49.565-21.28 98.147-70.75 108.522-6.38 1.308-12.75 2.001-19.03 2.001-42.39.009-80.43-29.551-89.5-72.744zm397.92 46.862c-50.53-2.112-89.87-44.758-87.78-95.282 2.1-50.583 44.76-89.842 95.36-87.772 50.52 2.019 89.77 44.69 87.77 95.282-2.08 49.283-42.66 87.858-91.52 87.858-1.21 0-2.53 0-3.83-.086z"/><path d="m1908.61 2878.99c-.18-56.37 45.27-102.1 101.55-102.28 56.29-.25 102.09 45.28 102.28 101.54.16 56.29-45.29 102.11-101.56 102.29-.19 0-.28 0-.36 0-56.09 0-101.75-45.48-101.91-101.55zm-199.49 55.11c-53.63-17.09-83.2-74.51-66.02-128.13 17.19-53.62 74.53-83.13 128.16-65.95 53.6 17.11 83.12 74.55 65.92 128.14-13.82 43.26-53.88 70.82-96.94 70.82-10.38 0-20.85-1.6-31.12-4.88zm474.56-67.17c-17.55-53.43 11.6-111.04 65.14-128.58 53.53-17.48 111.03 11.68 128.58 65.12 17.54 53.52-11.6 111.05-65.13 128.58-10.55 3.46-21.18 5.15-31.73 5.15-42.9 0-82.77-27.3-96.86-70.27zm-747.33-70.45c-45.64-32.89-56.01-96.6-23.14-142.23 32.97-45.66 96.6-56.02 142.33-23.13 45.62 32.87 56.01 96.61 23.12 142.23-19.93 27.64-51.13 42.35-82.76 42.35-20.65 0-41.47-6.2-59.55-19.22zm1005.29-26.07c-33.23-45.45-23.3-109.16 22.08-142.38h.07c45.38-33.25 109.2-23.33 142.42 22.13 33.14 45.47 23.22 109.28-22.15 142.41-18.18 13.31-39.25 19.69-60.09 19.69-31.47-.01-62.38-14.43-82.33-41.85zm-1222.15-188.66c-33.4-45.29-23.65-109.09 21.62-142.49 45.38-33.33 109.1-23.67 142.5 21.7 33.32 45.28 23.66 109.1-21.61 142.51-18.27 13.37-39.36 19.83-60.36 19.83-31.28.01-62.21-14.34-82.15-41.55zm1437.68 17.28c-45.54-33.04-55.75-96.77-22.68-142.33 33.05-45.54 96.86-55.66 142.41-22.6 45.54 33.06 55.64 96.78 22.6 142.34-19.94 27.46-51.06 42.09-82.6 42.09-20.73 0-41.66-6.37-59.73-19.5zm-1578.13-288.54c-17.64-53.44 11.25-111.04 64.69-128.77 53.44-17.72 111.12 11.17 128.85 64.68 17.63 53.44-11.26 111.05-64.69 128.78-10.64 3.53-21.44 5.23-32.09 5.23-42.71 0-82.5-27.12-96.76-69.92zm1730.64 59.29c-53.52-17.38-82.85-74.9-65.57-128.42 17.37-53.51 74.88-82.85 128.42-65.48 53.52 17.28 82.86 74.78 65.57 128.33-14.01 43.04-53.97 70.54-96.95 70.54-10.46 0-21.01-1.6-31.47-4.97zm-1780.09-360.52c-.36-56.24 44.92-102.26 101.19-102.61 56.37-.36 102.27 44.93 102.63 101.2.36 56.28-44.91 102.28-101.2 102.63-.27 0-.44 0-.7 0-55.93 0-101.57-45.22-101.92-101.22zm1752.09-6.72c0-1.78 0-3.56.11-5.23-.11-1.87-.19-3.64-.19-5.41-.79-56.27 44.22-102.55 100.49-103.34 56.27-.7 102.54 44.32 103.33 100.6 0 2.19 0 4.43-.18 6.64.18 2.21.28 4.52.28 6.74 0 56.34-45.65 101.9-101.92 101.9-56.27.01-101.92-45.56-101.92-101.9zm-1640.26-167.31c-53.71-16.93-83.48-74.19-66.47-127.9 17.03-53.69 74.27-83.37 127.89-66.46 53.7 17.02 83.39 74.25 66.46 127.97-13.73 43.43-53.87 71.14-97.14 71.14-10.17.01-20.54-1.48-30.74-4.75zm1599.41-81.55c-18.08-53.25 10.45-111.2 63.71-129.2 53.35-18.15 111.22 10.47 129.3 63.73 18.07 53.36-10.46 111.22-63.81 129.31-10.82 3.63-21.89 5.37-32.7 5.37-42.45-.01-82.14-26.74-96.5-69.21zm-1505.65-177.32c-45.72-32.78-56.27-96.4-23.58-142.24 32.8-45.71 96.43-56.27 142.23-23.55 45.74 32.77 56.29 96.41 23.58 142.13v.08c-19.94 27.74-51.23 42.63-83.04 42.63-20.46.01-41.19-6.21-59.19-19.05zm1393.01-36.51h.1c-33.77-45.1-24.47-108.92 20.64-142.6s108.92-24.45 142.58 20.66h.1c33.67 45.1 24.37 108.99-20.73 142.67-18.27 13.64-39.72 20.2-60.89 20.2-31.12 0-61.77-14.08-81.8-40.93zm-1223.76-180.79c-33.58-45.2-24.09-108.99 21.2-142.56 45.19-33.52 108.99-24.04 142.59 21.16 33.49 45.28 24.01 109.09-21.28 142.58-18.16 13.56-39.52 20.03-60.61 20.03-31.12 0-61.95-14.28-81.9-41.21zm1050.78 11.79v.07c-45.91-32.59-56.71-96.22-24.11-142.14 32.54-45.91 96.15-56.71 142.07-24.1 45.9 32.62 56.7 96.24 24.09 142.14-19.84 27.93-51.31 42.89-83.21 42.89-20.38.01-40.94-6.09-58.84-18.86zm-823.01-166.68c-17.9-53.35 10.82-111.05 64.16-129.05 53.35-17.89 111.12 10.9 129.03 64.26 17.9 53.35-10.82 111.14-64.25 129.03h.09c-10.82 3.62-21.73 5.32-32.44 5.32-42.62 0-82.32-26.95-96.59-69.56zm606.51 59.37c-53.69-16.84-83.65-73.99-66.91-127.71 16.84-53.71 74-83.65 127.69-66.9 53.72 16.83 83.67 73.99 66.93 127.71-13.65 43.57-53.88 71.58-97.32 71.58-10.01-.01-20.28-1.5-30.39-4.68zm-342.16-135.96c-.53-56.27 44.67-102.34 100.94-102.97v.09c56.27-.62 102.37 44.56 102.88 100.85.61 56.28-44.56 102.35-100.84 102.88-.36.09-.72.09-1.08.09-55.73.01-101.3-45-101.9-100.94z"/><path d="m2050.84 2532.53c-20.16-63.24 14.71-130.79 77.84-150.98 63.25-20.16 130.8 14.71 150.97 77.93 20.2 63.14-14.58 130.69-77.84 150.96-12.21 3.87-24.51 5.68-36.6 5.68-50.84.01-98.03-32.56-114.37-83.59zm-244.78 75.54c-62.94-20.95-97.05-88.9-76.1-151.86 20.95-62.93 88.9-97.06 151.94-76.1 62.95 20.96 96.96 88.9 76.02 151.94-16.73 50.36-63.62 82.27-113.98 82.17-12.51 0-25.28-1.92-37.88-6.15zm548.85-203.17c-53.54-39.12-65.26-114.27-26.05-167.89 39.2-53.53 114.35-65.15 167.89-26.05 53.53 39.22 65.15 114.36 26.05 167.9-23.55 32.19-60.06 49.21-97.08 49.21-24.57 0-49.39-7.5-70.81-23.17zm-867.03-32.09c-38.54-53.99-26.05-129.06 27.96-167.61 54.02-38.54 129.07-25.94 167.61 28.05 38.54 54.01 25.94 128.97-28.06 167.51-21.14 15.08-45.54 22.39-69.67 22.39-37.49.01-74.39-17.47-97.84-50.34zm917.38-370.27c0-66.32 53.82-120.04 120.13-120.04 66.41 0 120.13 53.72 120.13 120.04 0 66.41-53.72 120.11-120.13 120.11-66.31 0-120.13-53.7-120.13-120.11zm-916.99 114.05c-66.32-.76-119.45-55.16-118.69-121.55.67-66.31 55.16-119.46 121.48-118.69 66.29.77 119.44 55.16 118.67 121.48-.76 65.92-54.39 118.77-120.02 118.77-.5-.01-.98-.01-1.44-.01zm846.07-340.86c-37.88-54.5-24.5-129.35 29.99-167.21 54.38-37.87 129.34-24.52 167.2 29.98 37.87 54.48 24.41 129.34-29.98 167.21-20.94 14.53-44.88 21.51-68.52 21.51-37.96 0-75.33-17.97-98.69-51.49zm-813.5 12.6c-53.14-39.7-63.9-115.04-24.12-168.07 39.77-53.15 115.13-63.94 168.17-24.13 53.06 39.78 63.8 115.11 24.03 168.2-23.54 31.5-59.59 48.03-96.2 48.03-24.97-.02-50.35-7.8-71.88-24.03zm616.78-161.85c-62.66-21.62-95.9-90.04-74.31-152.71 21.74-62.75 90.16-96 152.81-74.28 62.67 21.63 95.91 90.07 74.29 152.8-17.2 49.69-63.71 80.83-113.57 80.83-12.99 0-26.25-2.12-39.22-6.64zm-396.9-83.99c-19.42-63.43 16.24-130.59 79.67-150.02 63.43-19.5 130.6 16.16 150.11 79.67 19.4 63.43-16.24 130.61-79.68 150.01-11.71 3.56-23.63 5.3-35.26 5.3-51.41 0-98.99-33.26-114.84-84.96z"/></g></svg>