<svg fill="none" height="424" viewBox="0 0 424 424" width="424" xmlns="http://www.w3.org/2000/svg"><path d="m316.242 323.329c59.507-44.139 71.965-128.161 27.825-187.667-44.139-59.5068-128.16-71.9645-187.667-27.825-59.5066 44.139-71.9643 128.161-27.825 187.667 44.139 59.507 128.161 71.965 187.667 27.825z" fill="#fff"/><path d="m276.013 317.245-61.351-78.936c1.512-1.175 2.936-2.465 4.229-3.832l72.585 68.749c-4.765 5.031-9.965 9.747-15.463 14.019zm-22.645 14.313c-6.23 3.133-12.75 5.808-19.384 7.952l-30.746-95.128c1.78-.576 3.534-1.295 5.205-2.136zm54.614-49.623-84.671-53.156c.996-1.585 1.878-3.263 2.619-4.983l91.793 39.612c-2.76 6.395-6.038 12.629-9.741 18.527zm-100.32 63.288c-6.907.799-13.935 1.072-20.888.812l3.73-99.905c1.892.071 3.803-.003 5.678-.219zm118.238-107.382-97.743-21.009c.401-1.862.661-3.767.776-5.661l99.793 5.994c-.417 6.929-1.368 13.887-2.826 20.676zm-165.687 104.592c-6.778-1.601-13.479-3.737-19.92-6.346l37.526-92.663c1.74.705 3.557 1.283 5.399 1.719zm167.497-152.115-99.049 13.566c-.256-1.87-.657-3.726-1.191-5.519l95.819-28.521c1.985 6.673 3.475 13.561 4.421 20.474zm-211.237 133.278c-5.839-3.837-11.423-8.157-16.5965-12.84l67.0865-74.123c1.378 1.246 2.865 2.399 4.425 3.424zm196.623-178.683-88.361 46.772c-.882-1.67-1.911-3.299-3.057-4.844l-.224-.301 80.296-59.56.224.301c4.143 5.585 7.885 11.518 11.122 17.632zm-231.3063 145.925-.1119-.151c-4.0819-5.503-7.7753-11.347-10.9816-17.368l88.2538-46.972c.878 1.649 1.894 3.256 3.025 4.78zm134.8563-109.543c-1.391-1.254-2.888-2.407-4.446-3.426l54.73-83.662c5.833 3.8153 11.421 8.119 16.611 12.791zm-60.443 38.377-95.7544 28.741c-2.0066-6.689-3.511-13.586-4.4691-20.503l99.0305-13.717c.254 1.851.656 3.694 1.193 5.479zm49.572-45.154c-1.753-.705-3.578-1.281-5.42-1.714l22.8-97.338c6.77 1.584 13.471 3.7043 19.919 6.2969zm-51.06 32.354-99.8058-5.771c.4011-6.938 1.337-13.9 2.7841-20.696l97.7827 20.818c-.397 1.856-.651 3.756-.761 5.649zm38.354-35.039c-1.892-.066-3.801.011-5.673.233l-11.706-99.2859c6.906-.8148 13.937-1.1046 20.895-.8597zm-35.381 22.415-91.8745-39.421c2.75-6.409 6.0151-12.65 9.7015-18.55l84.78 52.982c-.988 1.581-1.865 3.259-2.607 4.989zm22.642-20.634c-1.775.577-3.521 1.297-5.194 2.143l-45.114-89.2158c6.229-3.1497 12.747-5.84 19.376-7.9968zm-15.626 9.934-72.7286-68.595c4.7542-5.041 9.9486-9.769 15.4346-14.052l61.517 78.807c-1.509 1.177-2.931 2.469-4.223 3.84z" fill="#c1cb8b"/></svg>