<svg width="308" height="308" viewBox="0 0 308 308" fill="none" xmlns="http://www.w3.org/2000/svg">
<path d="M227.099 220.484L222.234 215.619C260.076 177.777 260.076 116.202 222.234 78.3604C184.391 40.5178 122.817 40.5178 84.9748 78.3604C47.1325 116.203 47.1325 177.777 84.9748 215.62L80.1099 220.484C39.5848 179.959 39.5844 114.02 80.1092 73.4948C120.634 32.9697 186.574 32.97 227.099 73.4952C267.624 114.02 267.624 179.959 227.099 220.484Z" fill="#CB8BB3"/>
<path d="M216.304 209.69L211.439 204.824C243.33 172.933 243.33 121.045 211.439 89.1548C179.548 57.2641 127.66 57.2638 95.7694 89.1548C63.8795 121.045 63.8795 172.935 95.7698 204.825L90.9046 209.69C56.3314 175.117 56.3317 118.862 90.9042 84.2895C125.477 49.7164 181.732 49.7167 216.305 84.2899C250.878 118.862 250.878 175.117 216.304 209.69Z" fill="#CB8BB3"/>
<path d="M204.265 197.65L199.4 192.785C224.652 167.533 224.652 126.446 199.4 101.194C174.148 75.9415 133.061 75.9411 107.808 101.194C82.5564 126.445 82.5564 167.533 107.809 192.785L102.944 197.65C75.0086 169.715 75.009 124.262 102.943 96.3279C130.878 68.3933 176.33 68.3937 204.265 96.3286C232.199 124.263 232.199 169.716 204.265 197.65Z" fill="#CB8BB3"/>
<path d="M234.187 226.302C189.665 270.824 117.221 270.825 72.6978 226.302L113.565 185.435C135.553 207.423 171.331 207.424 193.319 185.435L234.186 226.302L234.187 226.302Z" fill="#8BB5CB"/>
</svg>
