<svg fill="none" height="308" viewBox="0 0 308 308" width="308" xmlns="http://www.w3.org/2000/svg"><g fill="#cb8bb3"><path d="m227.099 220.484-4.865-4.865c37.842-37.842 37.842-99.417 0-137.2586-37.843-37.8426-99.417-37.8426-137.2592 0-37.8423 37.8426-37.8423 99.4166 0 137.2596l-4.8649 4.864c-40.5251-40.525-40.5255-106.464-.0007-146.9892 40.5248-40.5251 106.4648-40.5248 146.9898.0004 40.525 40.5248 40.525 106.4638 0 146.9888z"/><path d="m216.304 209.69-4.865-4.866c31.891-31.891 31.891-83.779 0-115.6692-31.891-31.8907-83.779-31.891-115.6696 0-31.8899 31.8902-31.8899 83.7802.0004 115.6702l-4.8652 4.865c-34.5732-34.573-34.5729-90.828-.0004-125.4005 34.5728-34.5731 90.8278-34.5728 125.4008.0004 34.573 34.5721 34.573 90.8271-.001 125.4001z"/><path d="m204.265 197.65-4.865-4.865c25.252-25.252 25.252-66.339 0-91.591-25.252-25.2525-66.339-25.2529-91.592 0-25.2516 25.251-25.2516 66.339.001 91.591l-4.865 4.865c-27.9354-27.935-27.935-73.388-.001-101.3221 27.935-27.9346 73.387-27.9342 101.322.0007 27.934 27.9344 27.934 73.3874 0 101.3214z"/></g><path d="m234.187 226.302c-44.522 44.522-116.966 44.523-161.4892 0l40.8672-40.867c21.988 21.988 57.766 21.989 79.754 0l40.867 40.867z" fill="#8bb5cb"/></svg>