<svg width="209" height="217" viewBox="0 0 209 217" fill="none" xmlns="http://www.w3.org/2000/svg">
<path d="M178.099 177.484L173.234 172.619C211.076 134.777 211.076 73.2019 173.234 35.3603C135.391 -2.48227 73.817 -2.48227 35.9748 35.3603C-1.86752 73.2029 -1.86752 134.777 35.9748 172.62L31.1099 177.484C-9.41522 136.959 -9.41562 71.0199 31.1092 30.4947C71.634 -10.0304 137.574 -10.0301 178.099 30.4951C218.624 71.0199 218.624 136.959 178.099 177.484Z" fill="#CB8BB3"/>
<path d="M167.304 166.69L162.439 161.824C194.33 129.933 194.33 78.045 162.439 46.1548C130.548 14.2641 78.6598 14.2638 46.7692 46.1548C14.8793 78.045 14.8793 129.935 46.7696 161.825L41.9044 166.69C7.33125 132.117 7.33155 75.862 41.904 41.2895C76.4768 6.71642 132.732 6.71673 167.305 41.2899C201.878 75.862 201.878 132.117 167.304 166.69Z" fill="#CB8BB3"/>
<path d="M155.265 154.65L150.4 149.785C175.652 124.533 175.652 83.446 150.4 58.194C125.148 32.9415 84.0612 32.9411 58.8082 58.194C33.5566 83.445 33.5566 124.533 58.8092 149.785L53.9442 154.65C26.0088 126.715 26.0092 81.262 53.9432 53.3279C81.8782 25.3933 127.33 25.3937 155.265 53.3286C183.199 81.263 183.199 126.716 155.265 154.65Z" fill="#CB8BB3"/>
<path d="M185.187 183.302C140.665 227.824 68.221 227.825 23.6978 183.302L64.565 142.435C86.553 164.423 122.331 164.424 144.319 142.435L185.187 183.302Z" fill="#8BB5CB"/>
</svg>
