<svg width="4016" height="4005" viewBox="0 0 4016 4005" fill="none" xmlns="http://www.w3.org/2000/svg">
<g opacity="0.05">
<path d="M2076.4 3935.89C2073.41 3894.84 2104.18 3859.2 2145.19 3856.15C2186.22 3853.17 2221.86 3883.93 2224.92 3924.98C2227.91 3965.98 2197.06 4001.62 2156.04 4004.68C2154.2 4004.77 2152.39 4004.86 2150.57 4004.86C2111.95 4004.85 2079.3 3974.99 2076.4 3935.89ZM1856 4004.43C1815.05 4001.39 1784.31 3965.65 1787.35 3924.64C1790.42 3883.69 1826.13 3852.93 1867.08 3855.99C1908.09 3859.05 1938.85 3894.78 1935.8 3935.7C1932.9 3974.83 1900.23 4004.6 1861.61 4004.6C1859.81 4004.6 1857.9 4004.6 1856 4004.43ZM2364.03 3904.28C2354.93 3864.18 2380.07 3824.3 2420.11 3815.22C2460.2 3806.21 2500.06 3831.34 2509.15 3871.36C2518.25 3911.48 2493.12 3951.33 2453.01 3960.44C2447.49 3961.67 2441.93 3962.25 2436.47 3962.25C2402.47 3962.26 2371.8 3938.85 2364.03 3904.28ZM1559.11 3959.77C1519.08 3950.58 1493.93 3910.74 1503.12 3870.63C1512.3 3830.6 1552.15 3805.53 1592.26 3814.64C1632.29 3823.82 1657.44 3863.68 1648.25 3903.78C1640.39 3938.27 1609.7 3961.68 1575.8 3961.68C1570.27 3961.67 1564.73 3961 1559.11 3959.77ZM2643.63 3830.03C2628.57 3791.8 2647.43 3748.64 2685.72 3733.59C2724.01 3718.64 2767.19 3737.48 2782.16 3775.77C2797.2 3813.97 2778.34 3857.24 2740.06 3872.2C2731.12 3875.68 2721.94 3877.34 2712.92 3877.34C2683.16 3877.33 2655.12 3859.39 2643.63 3830.03ZM1271.97 3871.03C1233.76 3855.9 1215 3812.74 1230.04 3774.52C1245.09 3736.24 1288.34 3717.49 1326.55 3732.51C1364.84 3747.56 1383.6 3790.84 1368.56 3829.03C1356.98 3858.31 1328.94 3876.25 1299.25 3876.25C1290.16 3876.24 1280.98 3874.51 1271.97 3871.03ZM2908.77 3714.82C2888.18 3679.18 2900.34 3633.71 2935.97 3613.09C2971.53 3592.5 3017.02 3604.74 3037.6 3640.3C3058.2 3675.86 3045.98 3721.43 3010.41 3742.02C2998.68 3748.71 2985.94 3751.95 2973.27 3751.95C2947.55 3751.95 2922.5 3738.63 2908.77 3714.82ZM1001.53 3740.21C965.971 3719.62 953.911 3674.06 974.575 3638.49C995.171 3602.93 1040.74 3590.76 1076.31 3611.43C1111.87 3632.04 1123.93 3677.6 1103.35 3713.16C1089.45 3736.97 1064.48 3750.3 1038.83 3750.3C1026.19 3750.29 1013.3 3746.99 1001.53 3740.21ZM3153.72 3561.08C3128.09 3528.91 3133.38 3482.1 3165.54 3456.46C3197.64 3430.82 3244.44 3436.11 3270.17 3468.3C3295.71 3500.39 3290.51 3547.2 3258.34 3572.83C3244.62 3583.84 3228.23 3589.11 3211.94 3589.11C3190.12 3589.11 3168.45 3579.52 3153.72 3561.08ZM753.853 3570.5C753.853 3570.5 753.853 3570.5 753.853 3570.59C721.77 3544.87 716.561 3497.98 742.195 3465.89C767.914 3433.8 814.717 3428.59 846.817 3454.32H846.885C878.977 3480.05 884.109 3526.84 858.466 3558.94C843.738 3577.28 822.081 3586.87 800.236 3586.87C783.951 3586.87 767.58 3581.51 753.853 3570.5ZM3373.29 3372.59C3343.12 3344.65 3341.45 3297.52 3369.4 3267.4C3397.36 3237.3 3444.5 3235.57 3474.61 3263.61C3504.72 3291.56 3506.45 3338.62 3478.41 3368.72C3463.77 3384.51 3443.84 3392.54 3423.9 3392.54C3405.79 3392.54 3387.6 3385.92 3373.29 3372.59ZM534.037 3365.99C506.154 3335.87 507.984 3288.76 538.091 3260.89C568.284 3232.94 615.42 3234.76 643.295 3264.94C671.246 3295.04 669.425 3342.17 639.241 3370.05C624.931 3383.37 606.816 3389.88 588.7 3389.88C568.686 3389.88 548.757 3381.88 534.037 3365.99ZM3562.43 3153.62C3528.53 3130.47 3519.85 3084.14 3543 3050.24C3566.14 3016.24 3612.55 3007.57 3646.46 3030.81C3680.35 3053.95 3689.04 3100.27 3665.89 3134.19C3651.41 3155.26 3628.1 3166.68 3604.37 3166.68C3589.88 3166.68 3575.24 3162.46 3562.43 3153.62ZM347.134 3131.19C323.98 3097.23 332.747 3050.9 366.737 3027.82C400.728 3004.67 447.034 3013.43 470.196 3047.44C493.264 3081.42 484.506 3127.73 450.507 3150.82C437.686 3159.57 423.137 3163.8 408.656 3163.8C384.93 3163.79 361.529 3152.37 347.134 3131.19ZM3716.99 2908.98C3679.93 2891.05 3664.48 2846.55 3682.34 2809.58C3700.2 2772.54 3744.7 2757.06 3781.74 2774.93C3818.71 2792.8 3834.26 2837.28 3816.4 2874.25C3816.4 2874.25 3816.4 2874.25 3816.4 2874.33C3803.49 2900.88 3776.96 2916.35 3749.33 2916.35C3738.41 2916.35 3727.4 2914.03 3716.99 2908.98ZM197.197 2871.19C179.424 2834.15 194.965 2789.74 232.025 2771.88C269.069 2754.09 313.571 2769.72 331.345 2806.77C349.203 2843.82 333.577 2888.23 296.525 2906.1C286.192 2911.04 275.193 2913.43 264.365 2913.43C236.644 2913.44 210.027 2897.9 197.197 2871.19ZM3833.19 2643.85C3793.98 2631.69 3771.91 2590.1 3783.98 2550.8C3796.13 2511.53 3837.81 2489.45 3877.1 2501.61C3916.38 2513.68 3938.37 2555.36 3926.3 2594.66C3916.38 2626.66 3886.94 2647.15 3855.2 2647.15C3847.92 2647.15 3840.55 2646.08 3833.19 2643.85ZM87.8707 2591.58C75.7937 2552.22 97.8779 2510.62 137.162 2498.55C176.524 2486.57 218.127 2508.65 230.204 2547.93C242.187 2587.2 220.102 2628.8 180.826 2640.87C173.548 2643.11 166.192 2644.2 158.99 2644.2C127.155 2644.2 97.6298 2623.59 87.8707 2591.58ZM3908.29 2364.41C3867.6 2358.38 3839.56 2320.49 3845.68 2279.81C3851.72 2239.11 3889.6 2211.14 3930.29 2217.21C3970.89 2223.24 3998.92 2261.21 3992.89 2301.8C3987.34 2338.78 3955.59 2365.24 3919.35 2365.24C3915.72 2365.24 3912 2364.99 3908.29 2364.41ZM21.7121 2298.67C15.6736 2257.98 43.7963 2220.18 84.4751 2214.14C125.085 2208.09 162.959 2236.24 168.997 2276.84C174.95 2317.53 146.904 2355.4 106.226 2361.43C102.505 2361.94 98.8615 2362.18 95.2264 2362.18C59.0124 2362.17 27.1776 2335.64 21.7121 2298.67ZM3866.2 2002.52C3866.2 1961.42 3899.51 1928.07 3940.61 1928.07C3981.72 1928.07 4015.05 1961.42 4015.05 2002.52C4015.05 2043.62 3981.72 2076.96 3940.61 2076.96C3899.5 2076.96 3866.2 2043.61 3866.2 2002.52ZM74.314 2073.89C33.2075 2073.8 -0.0299699 2040.39 0.0470084 1999.28C0.123987 1958.18 33.4641 1924.94 74.5535 1925.01C115.668 1925.01 148.906 1958.43 148.906 1999.52C148.82 2040.63 115.489 2073.88 74.4765 2073.88C74.3909 2073.89 74.3909 2073.89 74.314 2073.89ZM3846.51 1731.19C3840.55 1690.49 3868.75 1652.7 3909.43 1646.73C3950.03 1640.77 3987.85 1668.98 3993.78 1709.67C3999.73 1750.27 3971.61 1788.08 3930.93 1794.01C3927.28 1794.59 3923.64 1794.85 3920.09 1794.85C3883.71 1794.85 3851.96 1768.23 3846.51 1731.19ZM85.1422 1784.78C44.4549 1778.66 16.4947 1740.7 22.7043 1700C28.8198 1659.4 66.7017 1631.43 107.389 1637.56C148.068 1643.67 176.019 1681.65 169.818 1722.34C164.284 1759.22 132.527 1785.58 96.3041 1785.58C92.669 1785.58 88.8629 1785.35 85.1422 1784.78ZM3785.79 1459.99C3773.81 1420.71 3795.97 1379.12 3835.25 1367.13C3874.61 1355.15 3916.22 1377.3 3928.1 1416.67C3940.11 1455.96 3917.94 1497.54 3878.68 1509.54C3871.39 1511.78 3864.12 1512.78 3856.91 1512.78C3825.07 1512.78 3795.56 1492.1 3785.79 1459.99ZM138.805 1500.53C99.5372 1488.26 77.5299 1446.6 89.778 1407.33C101.932 1368.13 143.62 1346.13 182.888 1358.28C222.095 1370.44 244.094 1412.22 231.94 1451.4C222.01 1483.42 192.655 1503.84 160.897 1503.84C153.533 1503.84 146.1 1502.76 138.805 1500.53ZM3684.99 1201.07C3667.21 1164.01 3682.91 1119.51 3719.97 1101.83C3757.02 1084.04 3801.51 1099.69 3819.3 1136.8C3836.99 1173.84 3821.36 1218.35 3784.22 1236.05C3773.88 1241.01 3762.98 1243.41 3752.14 1243.41C3724.44 1243.42 3697.73 1227.78 3684.99 1201.07ZM234.583 1227.27C197.616 1209.42 182.161 1164.84 200.097 1127.87C218.041 1090.9 262.534 1075.45 299.493 1093.38C336.553 1111.26 351.932 1155.82 334.064 1192.8C321.166 1219.35 294.617 1234.81 266.999 1234.81C256.171 1234.81 245.078 1232.42 234.583 1227.27ZM3546.63 960.15C3523.46 926.177 3532.32 879.853 3566.39 856.794C3600.39 833.717 3646.71 842.57 3669.77 876.551C3692.85 910.542 3684 956.857 3650.01 979.916C3637.19 988.615 3622.64 992.831 3608.23 992.831C3584.42 992.84 3561.02 981.344 3546.63 960.15ZM370.296 971.662C336.391 948.423 327.786 902.108 351.025 868.212C374.273 834.307 420.579 825.626 454.484 848.933C488.389 872.164 497.002 918.479 473.754 952.392C459.368 973.407 436.035 984.74 412.309 984.74C397.828 984.732 383.108 980.506 370.296 971.662ZM3373.78 742.412C3345.91 712.228 3347.81 665.083 3378 637.217C3408.18 609.351 3455.32 611.25 3483.2 641.425C3511.06 671.712 3509.17 718.763 3478.99 746.621C3464.67 759.852 3446.56 766.387 3428.54 766.387C3408.43 766.395 3388.42 758.296 3373.78 742.412ZM542.556 739.111C512.449 711.151 510.798 664.014 538.844 633.984C566.881 603.903 613.932 602.235 644.03 630.264C674.052 658.309 675.797 705.369 647.751 735.467C633.031 751.171 613.188 759.117 593.25 759.117C575.058 759.125 556.865 752.514 542.556 739.111ZM3170.51 552.618C3138.51 526.899 3133.38 480.088 3159.1 448.013C3184.81 416.016 3231.7 410.867 3263.8 436.586C3295.8 462.314 3300.93 509.194 3275.22 541.217C3260.49 559.563 3238.9 569.074 3217.06 569.074C3200.79 569.074 3184.33 563.686 3170.51 552.618ZM747.327 534.759C721.77 502.599 727.064 455.779 759.233 430.231C791.401 404.683 838.289 409.96 863.846 442.137C889.403 474.391 884.109 521.202 851.932 546.742C838.204 557.665 821.825 562.959 805.625 562.873C783.712 562.873 762.038 553.285 747.327 534.759ZM2941.35 395.155C2905.88 374.482 2893.79 328.936 2914.47 293.364C2935.25 257.885 2980.72 245.808 3016.28 266.55C3051.75 287.248 3063.83 332.802 3043.15 368.281C3029.34 392.007 3004.38 405.239 2978.72 405.239C2966 405.239 2953.17 402.032 2941.35 395.155ZM980.118 363.157C959.607 327.525 971.847 282.022 1007.5 261.529C1043.05 241.019 1088.61 253.25 1109.12 288.908C1129.63 324.54 1117.32 370.026 1081.75 390.545C1070.02 397.233 1057.28 400.449 1044.69 400.449C1018.91 400.449 993.854 387.055 980.118 363.157ZM2691.27 273.674C2653.04 258.535 2634.37 215.291 2649.49 177.067C2664.55 138.868 2707.8 120.086 2746.01 135.242C2784.3 150.364 2802.98 193.608 2787.84 231.909C2776.28 261.093 2748.23 278.875 2718.63 278.875C2709.54 278.883 2700.28 277.215 2691.27 273.674ZM1235.75 228.103C1220.79 189.819 1239.71 146.66 1278 131.769C1278 131.769 1278 131.769 1278 131.675C1316.3 116.784 1359.46 135.729 1374.43 174.03C1389.32 212.314 1370.37 255.482 1332.17 270.467H1332.09C1323.24 273.837 1314.07 275.505 1305.13 275.505C1275.36 275.496 1247.24 257.552 1235.75 228.103ZM2425.71 191.145C2385.68 181.874 2360.64 141.939 2369.9 101.902C2379.08 61.8815 2419.02 36.8208 2459.14 46.0838C2499.16 55.2528 2524.14 95.2045 2514.96 135.242C2507.01 169.702 2476.41 193.035 2442.51 193.035C2436.97 193.044 2431.35 192.368 2425.71 191.145ZM1508.91 132.915C1499.89 92.8011 1525.12 52.9435 1565.21 43.9284C1605.34 34.9305 1645.12 60.1452 1654.13 100.251C1663.14 140.357 1637.99 180.137 1597.9 189.152C1592.35 190.393 1586.89 190.974 1581.45 190.974C1547.45 190.974 1516.68 167.479 1508.91 132.915ZM2150.99 149.372C2109.97 146.224 2079.3 110.438 2082.42 69.4853C2085.57 28.4644 2121.3 -2.21577 2162.32 0.931789C2203.26 4.06224 2233.95 39.7973 2230.79 80.8267C2227.82 119.838 2195.24 149.534 2156.71 149.534C2154.79 149.534 2152.9 149.457 2150.99 149.372ZM1793.31 79.7405C1790.32 38.711 1821.18 3.16416 1862.19 0.187667C1903.21 -2.7033 1938.85 28.1479 1941.75 69.1517C1944.64 110.181 1913.8 145.737 1872.86 148.713C1871.05 148.781 1869.23 148.884 1867.49 148.884C1828.79 148.884 1796.13 118.948 1793.31 79.7405Z" fill="#CB8BB3"/>
<path d="M2001.03 3586.09C1999.02 3542.2 2033.04 3504.98 2076.94 3502.98C2120.85 3501.05 2158.03 3534.96 2160.04 3578.88C2161.99 3622.8 2128.05 3660.06 2084.06 3661.99C2084.06 3661.99 2084.06 3661.99 2084.13 3661.99C2082.89 3662.07 2081.63 3662.07 2080.46 3662.07C2038.14 3662.07 2002.95 3628.71 2001.03 3586.09ZM1768.39 3646.57C1724.91 3640.29 1694.74 3599.92 1701.03 3556.44C1707.3 3512.87 1747.7 3482.71 1791.17 3489C1834.74 3495.27 1864.89 3535.66 1858.62 3579.12C1852.83 3618.83 1818.82 3647.41 1779.87 3647.41C1776.09 3647.42 1772.25 3647.16 1768.39 3646.57ZM2301.2 3559.03C2290.9 3516.29 2317.29 3473.32 2360.01 3463.1C2402.74 3452.8 2445.72 3479.2 2455.94 3521.9C2466.25 3564.64 2439.94 3607.62 2397.11 3617.83C2390.93 3619.35 2384.66 3620.1 2378.53 3620.1C2342.59 3620.1 2309.92 3595.56 2301.2 3559.03ZM1461.19 3571.6C1419.63 3557.11 1397.78 3511.78 1412.18 3470.23C1426.67 3428.77 1472.09 3406.8 1513.55 3421.29C1555.02 3435.69 1576.98 3481.1 1562.56 3522.59C1551.09 3555.42 1520.24 3576.04 1487.33 3576.04C1478.68 3576.04 1469.82 3574.61 1461.19 3571.6ZM2590.81 3475.43C2572.54 3435.48 2590.22 3388.22 2630.18 3370.04C2670.15 3351.77 2717.39 3369.46 2735.66 3409.5C2753.84 3449.47 2736.16 3496.61 2696.2 3514.87C2685.49 3519.74 2674.26 3522.08 2663.29 3522.08C2633.03 3522.08 2604.14 3504.74 2590.81 3475.43ZM1173.83 3439.41C1135.89 3417.3 1122.99 3368.54 1145.09 3330.57C1167.13 3292.54 1215.89 3279.73 1253.84 3301.76C1291.87 3323.87 1304.77 3372.62 1282.66 3410.58C1267.82 3435.98 1241.18 3450.2 1213.8 3450.2C1200.23 3450.19 1186.4 3446.69 1173.83 3439.41ZM2859.14 3338.21C2833.68 3302.33 2842.05 3252.66 2877.84 3227.19C2913.67 3201.72 2963.36 3210.11 2988.83 3245.88C3014.31 3281.74 3005.93 3331.42 2970.15 3356.89C2956.15 3366.87 2939.99 3371.65 2924.07 3371.65C2899.18 3371.63 2874.64 3359.97 2859.14 3338.21ZM916.904 3255.1C883.727 3226.28 880.297 3175.92 909.198 3142.84C938.099 3109.64 988.366 3106.22 1021.46 3135.12C1054.63 3164.05 1058.07 3214.31 1029.17 3247.47C1013.43 3265.49 991.385 3274.71 969.19 3274.71C950.587 3274.7 931.975 3268.25 916.904 3255.1ZM3096.64 3152.55C3064.9 3122.15 3063.71 3071.8 3094.12 3040.05C3124.45 3008.21 3174.87 3007.04 3206.65 3037.45C3238.4 3067.77 3239.57 3118.2 3209.23 3149.96C3193.57 3166.31 3172.63 3174.58 3151.61 3174.58C3131.92 3174.58 3112.06 3167.2 3096.64 3152.55ZM699.338 3025.71C672.199 2991.11 678.314 2941.1 712.912 2913.97C747.509 2886.89 797.52 2893.02 824.667 2927.63C851.729 2962.21 845.597 3012.25 811.008 3039.38C796.433 3050.76 779.173 3056.3 762.007 3056.3C738.375 3056.3 714.999 3045.72 699.338 3025.71ZM3294.96 2925.44C3258 2901.65 3247.35 2852.39 3271.24 2815.46C3295.03 2778.5 3344.29 2767.86 3381.23 2791.64C3418.18 2815.52 3428.82 2864.79 3405.03 2901.73C3389.77 2925.28 3364.15 2938.18 3338 2938.18C3323.26 2938.17 3308.34 2934.07 3294.96 2925.44ZM528.942 2759.4C528.942 2759.4 528.942 2759.4 528.942 2759.31C508.834 2720.2 524.332 2672.28 563.463 2652.24C602.576 2632.14 650.5 2647.63 670.522 2686.76C690.631 2725.87 675.141 2773.8 635.993 2793.91C624.438 2799.85 612.036 2802.62 599.814 2802.62C570.913 2802.62 543.004 2786.87 528.942 2759.4ZM3446.74 2664.98C3405.94 2648.66 3386.18 2602.34 3402.51 2561.51C3418.92 2520.72 3465.25 2500.84 3506.05 2517.29C3546.84 2533.63 3566.63 2579.94 3550.28 2620.75C3537.8 2651.84 3507.88 2670.76 3476.38 2670.76C3466.5 2670.75 3456.46 2668.93 3446.74 2664.98ZM412.243 2465.35C400.004 2423.13 424.303 2378.97 466.513 2366.75C508.74 2354.59 552.891 2378.89 565.122 2421.13C577.362 2463.35 553.062 2507.39 510.835 2519.7C503.377 2521.82 496.013 2522.81 488.64 2522.81C454.119 2522.82 422.285 2500.19 412.243 2465.35ZM3546.18 2380.48C3503.04 2372.18 3474.73 2330.47 3483.01 2287.24V2287.33C3491.32 2244.1 3533.03 2215.88 3576.17 2224.18C3619.33 2232.36 3647.63 2274.09 3639.34 2317.23C3639.34 2317.23 3639.34 2317.23 3639.34 2317.31C3632.05 2355.35 3598.63 2381.92 3561.28 2381.92C3556.32 2381.91 3551.22 2381.39 3546.18 2380.48ZM353.765 2154.64C349.831 2110.81 382.093 2072.11 425.817 2068.18C469.635 2064.15 508.338 2096.41 512.272 2140.23C516.292 2183.95 483.953 2222.66 440.229 2226.67C437.8 2226.93 435.371 2227.02 432.933 2227.02C392.22 2227.02 357.529 2195.93 353.765 2154.64ZM3509.9 2002.58C3509.9 1958.66 3545.59 1922.99 3589.49 1922.99C3633.47 1922.99 3669.08 1958.66 3669.08 2002.58C3669.08 2002.58 3669.08 2002.58 3669.17 2002.58C3669.17 2046.55 3633.47 2082.16 3589.5 2082.16C3545.59 2082.16 3509.9 2046.55 3509.9 2002.58ZM426.313 1925.59C382.581 1921.31 350.575 1882.34 354.928 1838.63C359.205 1794.9 398.156 1762.9 441.888 1767.16C485.629 1771.44 517.618 1810.38 513.264 1854.14C509.236 1895.26 474.647 1926.01 434.182 1925.91C431.59 1925.91 428.982 1925.82 426.313 1925.59ZM3485.02 1728.62C3477.06 1685.39 3505.62 1643.94 3548.86 1635.99C3592.11 1628.01 3633.65 1656.6 3641.61 1699.82C3649.57 1743.04 3620.91 1784.51 3577.77 1792.46C3572.83 1793.41 3567.97 1793.82 3563.19 1793.82C3525.57 1793.81 3492.14 1766.99 3485.02 1728.62ZM469.207 1627.27C427.066 1614.7 403.108 1570.39 415.587 1528.24C415.587 1528.24 415.587 1528.24 415.664 1528.24C428.143 1486.11 472.474 1462.15 514.607 1474.72C556.748 1487.19 580.714 1531.51 568.218 1573.66C557.92 1608.25 526.257 1630.52 491.984 1630.52C484.449 1630.52 476.828 1629.53 469.207 1627.27ZM3406.53 1453.85C3390.52 1412.96 3410.63 1366.72 3451.59 1350.72C3492.48 1334.63 3538.65 1354.74 3554.73 1395.72C3570.82 1436.59 3550.62 1482.83 3509.75 1498.84C3500.19 1502.59 3490.38 1504.37 3480.68 1504.37C3448.92 1504.36 3418.84 1485.18 3406.53 1453.85ZM568.218 1342.51C529.19 1322.16 514.103 1274.07 534.459 1235.1C554.824 1196.15 602.91 1181.07 641.869 1201.35C680.829 1221.7 695.908 1269.79 675.552 1308.75H675.629C661.388 1335.96 633.667 1351.56 605.014 1351.56C592.526 1351.57 579.953 1348.61 568.218 1342.51ZM3277.09 1199C3253.56 1161.88 3264.52 1112.7 3301.65 1089.16C3338.76 1065.64 3387.94 1076.61 3411.56 1113.72C3435.1 1150.82 3424.04 1200 3387.01 1223.54C3373.78 1231.92 3359.03 1235.95 3344.45 1235.95C3318.05 1235.95 3292.26 1222.88 3277.09 1199ZM719.609 1081.81C685.174 1054.41 679.486 1004.38 706.788 969.977C734.183 935.525 784.202 929.829 818.629 957.148C853.064 984.535 858.751 1034.55 831.45 1068.97C815.695 1088.75 792.49 1099.04 769.038 1099.04C751.692 1099.04 734.26 1093.45 719.609 1081.81ZM3101.67 973.142C3071.5 941.145 3073.02 890.792 3105.01 860.625C3137.02 830.553 3187.38 832.075 3217.55 864.064C3247.7 896.078 3246.19 946.413 3214.18 976.58C3198.75 990.992 3179.16 998.177 3159.63 998.177C3138.44 998.177 3117.34 989.812 3101.67 973.142ZM917.571 854.433C888.918 821.093 892.69 770.835 926.03 742.173C959.371 713.528 1009.63 717.292 1038.27 750.632C1066.86 783.981 1063.08 834.256 1029.74 862.892C1014.75 875.79 996.32 882.162 977.974 882.162C955.513 882.162 933.232 872.702 917.571 854.433ZM2886.7 784.408C2851.1 758.68 2843.13 708.918 2868.86 673.303C2894.6 637.713 2944.34 629.673 2980.03 655.384C3015.62 681.189 3023.59 730.874 2997.88 766.558C2982.3 788.078 2957.98 799.496 2933.28 799.496C2917.11 799.488 2900.87 794.612 2886.7 784.408ZM1154.74 668.376C1132.94 630.255 1146.2 581.588 1184.31 559.803C1222.51 537.924 1271.11 551.164 1292.96 589.38C1314.75 627.492 1301.5 676.16 1263.39 697.945C1250.91 705.069 1237.34 708.422 1223.93 708.422C1196.28 708.414 1169.48 694.079 1154.74 668.376ZM2640.16 639.715C2600.28 621.197 2582.95 573.873 2601.45 534.075C2619.98 494.209 2667.29 476.863 2707.17 495.372C2747.05 513.898 2764.4 561.248 2745.88 601.089C2732.39 630.084 2703.66 647.182 2673.57 647.182C2662.35 647.173 2650.98 644.83 2640.16 639.715ZM1422.9 530.645C1408.75 489.077 1430.95 443.848 1472.58 429.692C1514.21 415.537 1559.37 437.741 1573.61 479.395C1587.77 521.023 1565.49 566.252 1523.86 580.416C1515.39 583.264 1506.76 584.684 1498.2 584.684C1465.04 584.675 1434.13 563.823 1422.9 530.645ZM2370.56 544.706C2327.93 534.075 2301.87 490.924 2312.41 448.304C2323.05 405.649 2366.21 379.614 2408.85 390.245C2451.48 400.8 2477.54 443.942 2466.98 486.588C2457.94 522.845 2425.51 547.067 2389.74 547.067C2383.46 547.067 2377.02 546.314 2370.56 544.706ZM1712.35 446.602C1706.39 403.049 1736.81 362.926 1780.37 356.973C1823.94 350.943 1864.05 381.444 1870.01 425.022C1875.95 468.566 1845.54 508.698 1801.99 514.651C1798.3 515.155 1794.69 515.386 1791.08 515.386C1751.96 515.378 1717.8 486.494 1712.35 446.602ZM2087.83 502.736C2043.94 500.487 2010.16 463.041 2012.52 419.146C2014.78 375.243 2052.21 341.475 2096.13 343.75C2140.02 346.077 2173.69 383.54 2171.43 427.417C2169.17 469.892 2134.08 502.83 2092.01 502.83C2090.58 502.839 2089.25 502.839 2087.83 502.736Z" fill="#CB8BB3"/>
<path d="M2003.61 3260.51C2000.12 3210 2038.24 3166.27 2088.76 3162.88C2139.19 3159.39 2182.9 3197.52 2186.39 3247.95C2189.87 3298.46 2151.75 3342.17 2101.24 3345.66C2099.14 3345.76 2097.05 3345.84 2094.95 3345.84C2047.16 3345.84 2006.92 3308.85 2003.61 3260.51ZM1765.96 3327.16C1716.23 3318.09 1683.15 3270.36 1692.23 3220.65C1701.21 3170.83 1748.85 3137.84 1798.67 3146.82C1848.48 3155.9 1881.47 3203.54 1872.48 3253.36C1864.45 3297.6 1825.81 3328.65 1782.35 3328.65C1776.94 3328.64 1771.45 3328.12 1765.96 3327.16ZM2315.34 3222.75C2299.47 3174.65 2325.45 3122.93 2373.53 3106.96C2421.51 3091.09 2473.33 3117.16 2489.3 3165.24C2505.18 3213.23 2479.1 3265.03 2431.11 3280.93C2421.51 3284.05 2411.81 3285.64 2402.31 3285.64C2363.85 3285.54 2328.08 3261.21 2315.34 3222.75ZM1445.25 3225.97C1399.27 3204.77 1379.2 3150.32 1400.31 3104.43C1421.51 3058.45 1475.94 3038.38 1521.84 3059.5C1567.81 3080.71 1587.89 3135.05 1566.77 3181.03C1551.34 3214.6 1518.18 3234.35 1483.54 3234.35C1470.71 3234.35 1457.63 3231.63 1445.25 3225.97ZM2607.87 3108.54C2580.49 3065.95 2592.86 3009.33 2635.43 2981.93C2678.02 2954.63 2734.73 2967.02 2762.05 3009.59C2789.34 3052.15 2776.95 3108.79 2734.45 3136.09C2734.45 3136.09 2734.45 3136.09 2734.45 3136.19C2719.1 3145.95 2702.01 3150.67 2684.99 3150.67C2654.9 3150.68 2625.32 3135.84 2607.87 3108.54ZM1159.95 3048.24C1120.68 3016.39 1114.67 2958.74 1146.51 2919.38C1178.44 2880.13 1236.11 2874.1 1275.37 2906.02C1314.73 2937.88 1320.65 2995.64 1288.81 3034.9C1270.66 3057.22 1244.23 3068.73 1217.62 3068.73C1197.3 3068.74 1176.88 3062.04 1159.95 3048.24ZM2862.9 2925.41C2825.9 2890.86 2823.89 2832.91 2858.44 2795.92C2892.89 2758.94 2950.93 2756.93 2987.92 2791.48C3024.91 2825.93 3026.83 2883.97 2992.37 2920.84C2974.3 2940.23 2949.86 2950 2925.36 2950C2902.93 2950.01 2880.51 2941.88 2862.9 2925.41ZM927.439 2805.8C897.17 2765.22 905.543 2707.82 946.196 2677.63C986.764 2647.45 1044.09 2655.82 1074.36 2696.39C1104.54 2736.95 1096.17 2794.35 1055.59 2824.54C1039.19 2836.85 1020 2842.68 1000.98 2842.68C972.985 2842.68 945.418 2829.96 927.439 2805.8ZM3064.95 2684.94C3020.62 2660.6 3004.31 2604.94 3028.66 2560.62C3053 2516.23 3108.66 2500.01 3152.98 2524.35C3197.38 2548.58 3213.61 2604.26 3189.36 2648.66C3172.7 2679.02 3141.28 2696.22 3108.91 2696.22C3093.99 2696.21 3078.91 2692.62 3064.95 2684.94ZM761.945 2513.43C742.743 2466.6 765.084 2413.1 811.835 2393.9C858.698 2374.71 912.172 2397.04 931.459 2443.89C950.644 2490.68 928.226 2544.14 881.466 2563.42C870.125 2568.04 858.347 2570.33 846.723 2570.33C810.629 2570.32 776.511 2548.86 761.945 2513.43ZM3201.22 2401.93C3152.2 2389.45 3122.62 2339.63 3135.09 2290.61C3147.58 2241.58 3197.49 2211.9 3246.5 2224.38C3295.53 2236.95 3325.11 2286.77 3312.65 2335.79C3302.08 2377.25 3264.81 2404.81 3223.91 2404.81C3216.49 2404.82 3208.81 2403.94 3201.22 2401.93ZM674.343 2188.89C667.449 2138.73 702.432 2092.48 752.519 2085.59C802.683 2078.61 848.922 2113.58 855.807 2163.77C862.786 2213.84 827.804 2260.09 777.725 2267.06C773.449 2267.66 769.181 2267.93 764.99 2267.93C719.974 2267.93 680.707 2234.77 674.343 2188.89ZM3171.03 2002.44C3171.03 1996.94 3171.57 1991.62 3172.43 1986.28C3171.37 1981.14 3170.78 1975.74 3170.6 1970.23C3169.2 1919.64 3209.06 1877.59 3259.67 1876.21C3310.27 1874.79 3352.32 1914.68 3353.71 1965.28C3353.89 1971.65 3353.45 1977.93 3352.41 1983.96C3353.64 1989.88 3354.24 1996.07 3354.24 2002.44C3354.24 2053.05 3313.25 2094.05 3262.64 2094.05C3212.04 2094.04 3171.03 2053.04 3171.03 2002.44ZM750.774 1954.2C700.43 1948.7 664.216 1903.4 669.716 1853.08C675.301 1802.82 720.573 1766.52 770.84 1772.12C821.175 1777.59 857.381 1822.88 851.89 1873.22C846.655 1920.08 807.045 1954.8 760.893 1954.8C757.583 1954.8 754.17 1954.62 750.774 1954.2ZM3126.71 1683.3C3112.84 1634.62 3141.12 1583.92 3189.79 1570.05C3238.4 1556.26 3289.07 1584.44 3302.95 1633.13C3316.8 1681.81 3288.55 1732.41 3239.88 1746.28C3231.5 1748.64 3223.12 1749.86 3214.75 1749.78C3174.87 1749.78 3138.15 1723.51 3126.71 1683.3ZM801.546 1644.2C754.264 1626.32 730.349 1573.44 748.242 1526.06C748.242 1526.06 748.242 1526.06 748.345 1526.06C766.213 1478.78 819.088 1454.87 866.379 1472.84C913.754 1490.74 937.566 1543.6 919.673 1590.9C905.808 1627.53 870.912 1650.13 833.919 1650.13C823.185 1650.14 812.194 1648.22 801.546 1644.2ZM3012.86 1416.41C2987.3 1372.69 3001.94 1316.6 3045.67 1291.04C3089.37 1265.49 3145.48 1280.22 3171.03 1323.92C3171.03 1323.92 3171.03 1323.92 3170.95 1323.92C3196.49 1367.54 3181.76 1423.74 3138.14 1449.21C3123.58 1457.68 3107.68 1461.78 3091.98 1461.78C3060.49 1461.78 3029.87 1445.54 3012.86 1416.41ZM927.97 1356.75C886.615 1327.59 876.659 1270.45 905.714 1229.09C934.864 1187.65 991.922 1177.7 1033.35 1206.75C1074.71 1235.9 1084.76 1293.06 1055.6 1334.41C1037.82 1359.79 1009.37 1373.4 980.58 1373.4C962.422 1373.39 944.015 1368 927.97 1356.75ZM2836.18 1185.93C2800.69 1149.88 2801.11 1091.86 2837.14 1056.36C2873.18 1020.83 2931.1 1021.2 2966.69 1057.22C3002.2 1093.27 3001.78 1151.28 2965.75 1186.78C2947.85 1204.42 2924.65 1213.23 2901.45 1213.23C2877.82 1213.23 2854.15 1204.06 2836.18 1185.93ZM1121.74 1109.49C1088.76 1071.09 1093.13 1013.35 1131.59 980.361C1169.99 947.363 1227.73 951.828 1260.71 990.223C1293.71 1028.61 1289.25 1086.45 1250.87 1119.35V1119.43C1233.59 1134.25 1212.39 1141.5 1191.28 1141.5C1165.45 1141.51 1139.8 1130.58 1121.74 1109.49ZM2608.22 1006.01C2564.86 979.848 2551 923.483 2577.17 880.204C2603.26 836.933 2659.61 822.975 2702.88 849.147C2746.25 875.32 2760.1 931.6 2733.93 974.947C2716.75 1003.39 2686.48 1019.18 2655.5 1019.18C2639.36 1019.18 2622.95 1014.91 2608.22 1006.01ZM1370.21 917.726C1347.78 872.352 1366.37 817.406 1411.74 794.972C1457.1 772.545 1512.08 791.123 1534.5 836.48C1556.92 881.863 1538.34 936.749 1492.96 959.243C1479.88 965.709 1466.09 968.754 1452.41 968.754C1418.72 968.754 1386.17 950.006 1370.21 917.726ZM2342.9 888.235C2294.4 873.746 2266.91 822.632 2281.47 774.196C2296.06 725.691 2347.1 698.21 2395.52 712.767C2395.52 712.767 2395.52 712.767 2395.6 712.767C2444.01 727.35 2471.5 778.396 2456.93 826.9C2445.06 866.501 2408.6 892.169 2369.25 892.169C2360.53 892.169 2351.62 890.929 2342.9 888.235ZM1658.65 793.475C1648.16 743.918 1679.94 695.421 1729.4 684.952C1778.96 674.56 1827.47 706.233 1837.93 755.696C1848.31 805.261 1816.65 853.843 1767.18 864.218C1760.8 865.526 1754.43 866.219 1748.15 866.219C1705.76 866.228 1667.72 836.668 1658.65 793.475ZM2056.57 840.337C2006.04 838.225 1966.7 795.579 1968.79 745.055C1970.89 694.472 2013.55 655.213 2064.15 657.283C2114.67 659.302 2153.92 701.973 2151.92 752.565C2149.84 801.848 2109.26 840.423 2060.4 840.423C2059.19 840.423 2057.87 840.423 2056.57 840.337Z" fill="#CB8BB3"/>
<path d="M1908.61 2878.99C1908.43 2822.62 1953.88 2776.89 2010.16 2776.71C2066.45 2776.46 2112.25 2821.99 2112.44 2878.25C2112.6 2934.54 2067.15 2980.36 2010.88 2980.54C2010.69 2980.54 2010.6 2980.54 2010.52 2980.54C1954.43 2980.54 1908.77 2935.06 1908.61 2878.99ZM1709.12 2934.1C1655.49 2917.01 1625.92 2859.59 1643.1 2805.97C1660.29 2752.35 1717.63 2722.84 1771.26 2740.02C1824.86 2757.13 1854.38 2814.57 1837.18 2868.16C1823.36 2911.42 1783.3 2938.98 1740.24 2938.98C1729.86 2938.98 1719.39 2937.38 1709.12 2934.1ZM2183.68 2866.93C2166.13 2813.5 2195.28 2755.89 2248.82 2738.35C2302.35 2720.87 2359.85 2750.03 2377.4 2803.47C2394.94 2856.99 2365.8 2914.52 2312.27 2932.05C2301.72 2935.51 2291.09 2937.2 2280.54 2937.2C2237.64 2937.2 2197.77 2909.9 2183.68 2866.93ZM1436.35 2796.48C1390.71 2763.59 1380.34 2699.88 1413.21 2654.25C1446.18 2608.59 1509.81 2598.23 1555.54 2631.12C1601.16 2663.99 1611.55 2727.73 1578.66 2773.35C1558.73 2800.99 1527.53 2815.7 1495.9 2815.7C1475.25 2815.7 1454.43 2809.5 1436.35 2796.48ZM2441.64 2770.41C2408.41 2724.96 2418.34 2661.25 2463.72 2628.03H2463.79C2509.17 2594.78 2572.99 2604.7 2606.21 2650.16C2639.35 2695.63 2629.43 2759.44 2584.06 2792.57C2565.88 2805.88 2544.81 2812.26 2523.97 2812.26C2492.5 2812.25 2461.59 2797.83 2441.64 2770.41ZM1219.49 2581.75C1186.09 2536.46 1195.84 2472.66 1241.11 2439.26C1286.49 2405.93 1350.21 2415.59 1383.61 2460.96C1416.93 2506.24 1407.27 2570.06 1362 2603.47C1343.73 2616.84 1322.64 2623.3 1301.64 2623.3C1270.36 2623.31 1239.43 2608.96 1219.49 2581.75ZM2657.17 2599.03C2611.63 2565.99 2601.42 2502.26 2634.49 2456.7C2667.54 2411.16 2731.35 2401.04 2776.9 2434.1C2822.44 2467.16 2832.54 2530.88 2799.5 2576.44C2779.56 2603.9 2748.44 2618.53 2716.9 2618.53C2696.17 2618.53 2675.24 2612.16 2657.17 2599.03ZM1079.04 2310.49C1061.4 2257.05 1090.29 2199.45 1143.73 2181.72C1197.17 2164 1254.85 2192.89 1272.58 2246.4C1290.21 2299.84 1261.32 2357.45 1207.89 2375.18C1197.25 2378.71 1186.45 2380.41 1175.8 2380.41C1133.09 2380.41 1093.3 2353.29 1079.04 2310.49ZM2809.68 2369.78C2756.16 2352.4 2726.83 2294.88 2744.11 2241.36C2761.48 2187.85 2818.99 2158.51 2872.53 2175.88C2926.05 2193.16 2955.39 2250.66 2938.1 2304.21C2924.09 2347.25 2884.13 2374.75 2841.15 2374.75C2830.69 2374.75 2820.14 2373.15 2809.68 2369.78ZM1029.59 2009.26C1029.23 1953.02 1074.51 1907 1130.78 1906.65C1187.15 1906.29 1233.05 1951.58 1233.41 2007.85C1233.77 2064.13 1188.5 2110.13 1132.21 2110.48C1131.94 2110.48 1131.77 2110.48 1131.51 2110.48C1075.58 2110.48 1029.94 2065.26 1029.59 2009.26ZM2781.68 2002.54C2781.68 2000.76 2781.68 1998.98 2781.79 1997.31C2781.68 1995.44 2781.6 1993.67 2781.6 1991.9C2780.81 1935.63 2825.82 1889.35 2882.09 1888.56C2938.36 1887.86 2984.63 1932.88 2985.42 1989.16C2985.42 1991.35 2985.42 1993.59 2985.24 1995.8C2985.42 1998.01 2985.52 2000.32 2985.52 2002.54C2985.52 2058.88 2939.87 2104.44 2883.6 2104.44C2827.33 2104.45 2781.68 2058.88 2781.68 2002.54ZM1141.42 1835.23C1087.71 1818.3 1057.94 1761.04 1074.95 1707.33C1091.98 1653.64 1149.22 1623.96 1202.84 1640.87C1256.54 1657.89 1286.23 1715.12 1269.3 1768.84C1255.57 1812.27 1215.43 1839.98 1172.16 1839.98C1161.99 1839.99 1151.62 1838.5 1141.42 1835.23ZM2740.83 1753.68C2722.75 1700.43 2751.28 1642.48 2804.54 1624.48C2857.89 1606.33 2915.76 1634.95 2933.84 1688.21C2951.91 1741.57 2923.38 1799.43 2870.03 1817.52C2859.21 1821.15 2848.14 1822.89 2837.33 1822.89C2794.88 1822.88 2755.19 1796.15 2740.83 1753.68ZM1235.18 1576.36C1189.46 1543.58 1178.91 1479.96 1211.6 1434.12C1244.4 1388.41 1308.03 1377.85 1353.83 1410.57C1399.57 1443.34 1410.12 1506.98 1377.41 1552.7V1552.78C1357.47 1580.52 1326.18 1595.41 1294.37 1595.41C1273.91 1595.42 1253.18 1589.2 1235.18 1576.36ZM2628.19 1539.85H2628.29C2594.52 1494.75 2603.82 1430.93 2648.93 1397.25C2694.04 1363.57 2757.85 1372.8 2791.51 1417.91C2791.51 1417.91 2791.51 1417.91 2791.61 1417.91C2825.28 1463.01 2815.98 1526.9 2770.88 1560.58C2752.61 1574.22 2731.16 1580.78 2709.99 1580.78C2678.87 1580.78 2648.22 1566.7 2628.19 1539.85ZM1404.43 1359.06C1370.85 1313.86 1380.34 1250.07 1425.63 1216.5C1470.82 1182.98 1534.62 1192.46 1568.22 1237.66C1601.71 1282.94 1592.23 1346.75 1546.94 1380.24C1528.78 1393.8 1507.42 1400.27 1486.33 1400.27C1455.21 1400.27 1424.38 1385.99 1404.43 1359.06ZM2455.21 1370.85V1370.92C2409.3 1338.33 2398.5 1274.7 2431.1 1228.78C2463.64 1182.87 2527.25 1172.07 2573.17 1204.68C2619.07 1237.3 2629.87 1300.92 2597.26 1346.82C2577.42 1374.75 2545.95 1389.71 2514.05 1389.71C2493.67 1389.72 2473.11 1383.62 2455.21 1370.85ZM1632.2 1204.17C1614.3 1150.82 1643.02 1093.12 1696.36 1075.12C1749.71 1057.23 1807.48 1086.02 1825.39 1139.38C1843.29 1192.73 1814.57 1250.52 1761.14 1268.41H1761.23C1750.41 1272.03 1739.5 1273.73 1728.79 1273.73C1686.17 1273.73 1646.47 1246.78 1632.2 1204.17ZM2238.71 1263.54C2185.02 1246.7 2155.06 1189.55 2171.8 1135.83C2188.64 1082.12 2245.8 1052.18 2299.49 1068.93C2353.21 1085.76 2383.16 1142.92 2366.42 1196.64C2352.77 1240.21 2312.54 1268.22 2269.1 1268.22C2259.09 1268.21 2248.82 1266.72 2238.71 1263.54ZM1896.55 1127.58C1896.02 1071.31 1941.22 1025.24 1997.49 1024.61C1997.49 1024.61 1997.49 1024.61 1997.49 1024.7C2053.76 1024.08 2099.86 1069.26 2100.37 1125.55C2100.98 1181.83 2055.81 1227.9 1999.53 1228.43C1999.17 1228.52 1998.81 1228.52 1998.45 1228.52C1942.72 1228.53 1897.15 1183.52 1896.55 1127.58Z" fill="#CB8BB3"/>
<path d="M2050.84 2532.53C2030.68 2469.29 2065.55 2401.74 2128.68 2381.55C2191.93 2361.39 2259.48 2396.26 2279.65 2459.48C2299.85 2522.62 2265.07 2590.17 2201.81 2610.44C2189.6 2614.31 2177.3 2616.12 2165.21 2616.12C2114.37 2616.13 2067.18 2583.56 2050.84 2532.53ZM1806.06 2608.07C1743.12 2587.12 1709.01 2519.17 1729.96 2456.21C1750.91 2393.28 1818.86 2359.15 1881.9 2380.11C1944.85 2401.07 1978.86 2469.01 1957.92 2532.05C1941.19 2582.41 1894.3 2614.32 1843.94 2614.22C1831.43 2614.22 1818.66 2612.3 1806.06 2608.07ZM2354.91 2404.9C2301.37 2365.78 2289.65 2290.63 2328.86 2237.01C2368.06 2183.48 2443.21 2171.86 2496.75 2210.96C2550.28 2250.18 2561.9 2325.32 2522.8 2378.86C2499.25 2411.05 2462.74 2428.07 2425.72 2428.07C2401.15 2428.07 2376.33 2420.57 2354.91 2404.9ZM1487.88 2372.81C1449.34 2318.82 1461.83 2243.75 1515.84 2205.2C1569.86 2166.66 1644.91 2179.26 1683.45 2233.25C1721.99 2287.26 1709.39 2362.22 1655.39 2400.76C1634.25 2415.84 1609.85 2423.15 1585.72 2423.15C1548.23 2423.16 1511.33 2405.68 1487.88 2372.81ZM2405.26 2002.54C2405.26 1936.22 2459.08 1882.5 2525.39 1882.5C2591.8 1882.5 2645.52 1936.22 2645.52 2002.54C2645.52 2068.95 2591.8 2122.65 2525.39 2122.65C2459.08 2122.65 2405.26 2068.95 2405.26 2002.54ZM1488.27 2116.59C1421.95 2115.83 1368.82 2061.43 1369.58 1995.04C1370.25 1928.73 1424.74 1875.58 1491.06 1876.35C1557.35 1877.12 1610.5 1931.51 1609.73 1997.83C1608.97 2063.75 1555.34 2116.6 1489.71 2116.6C1489.21 2116.59 1488.73 2116.59 1488.27 2116.59ZM2334.34 1775.73C2296.46 1721.23 2309.84 1646.38 2364.33 1608.52C2418.71 1570.65 2493.67 1584 2531.53 1638.5C2569.4 1692.98 2555.94 1767.84 2501.55 1805.71C2480.61 1820.24 2456.67 1827.22 2433.03 1827.22C2395.07 1827.22 2357.7 1809.25 2334.34 1775.73ZM1520.84 1788.33C1467.7 1748.63 1456.94 1673.29 1496.72 1620.26C1536.49 1567.11 1611.85 1556.32 1664.89 1596.13C1717.95 1635.91 1728.69 1711.24 1688.92 1764.33C1665.38 1795.83 1629.33 1812.36 1592.72 1812.36C1567.75 1812.34 1542.37 1804.56 1520.84 1788.33ZM2137.62 1626.48C2074.96 1604.86 2041.72 1536.44 2063.31 1473.77C2085.05 1411.02 2153.47 1377.77 2216.12 1399.49C2278.79 1421.12 2312.03 1489.56 2290.41 1552.29C2273.21 1601.98 2226.7 1633.12 2176.84 1633.12C2163.85 1633.12 2150.59 1631 2137.62 1626.48ZM1740.72 1542.49C1721.3 1479.06 1756.96 1411.9 1820.39 1392.47C1883.82 1372.97 1950.99 1408.63 1970.5 1472.14C1989.9 1535.57 1954.26 1602.75 1890.82 1622.15C1879.11 1625.71 1867.19 1627.45 1855.56 1627.45C1804.15 1627.45 1756.57 1594.19 1740.72 1542.49Z" fill="#CB8BB3"/>
</g>
</svg>
